<svg width="40" height="40" viewBox="0 0 40 40" fill="none" xmlns="http://www.w3.org/2000/svg">
<path d="M20 15C17.29 15 15 17.29 15 20C15 22.71 17.29 25 20 25C22.71 25 25 22.71 25 20C25 17.29 22.71 15 20 15Z" fill="#0075FF"/>
<path d="M33.3334 8.33325H29.0234L24.5117 3.82159C24.3572 3.66652 24.1735 3.54354 23.9713 3.45973C23.7691 3.37592 23.5523 3.33294 23.3334 3.33325H16.6667C16.4478 3.33294 16.231 3.37592 16.0288 3.45973C15.8265 3.54354 15.6429 3.66652 15.4884 3.82159L10.9767 8.33325H6.66671C4.82837 8.33325 3.33337 9.82825 3.33337 11.6666V29.9999C3.33337 31.8383 4.82837 33.3333 6.66671 33.3333H33.3334C35.1717 33.3333 36.6667 31.8383 36.6667 29.9999V11.6666C36.6667 9.82825 35.1717 8.33325 33.3334 8.33325ZM20 28.3333C15.4834 28.3333 11.6667 24.5166 11.6667 19.9999C11.6667 15.4833 15.4834 11.6666 20 11.6666C24.5167 11.6666 28.3334 15.4833 28.3334 19.9999C28.3334 24.5166 24.5167 28.3333 20 28.3333Z" fill="#0075FF"/>
</svg>
